<svg xmlns="http://www.w3.org/2000/svg" viewBox="0 0 512 512">
  <rect width="512" height="512" rx="100" fill="#1E40AF"/>
  <!-- Film strip top -->
  <rect x="40" y="40" width="432" height="60" rx="10" fill="#1D4ED8"/>
  <rect x="60" y="52" width="40" height="36" rx="6" fill="#93C5FD"/>
  <rect x="120" y="52" width="40" height="36" rx="6" fill="#93C5FD"/>
  <rect x="180" y="52" width="40" height="36" rx="6" fill="#93C5FD"/>
  <rect x="240" y="52" width="40" height="36" rx="6" fill="#93C5FD"/>
  <rect x="300" y="52" width="40" height="36" rx="6" fill="#93C5FD"/>
  <rect x="360" y="52" width="40" height="36" rx="6" fill="#93C5FD"/>
  <rect x="420" y="52" width="32" height="36" rx="6" fill="#93C5FD"/>
  <!-- Film strip bottom -->
  <rect x="40" y="412" width="432" height="60" rx="10" fill="#1D4ED8"/>
  <rect x="60" y="424" width="40" height="36" rx="6" fill="#93C5FD"/>
  <rect x="120" y="424" width="40" height="36" rx="6" fill="#93C5FD"/>
  <rect x="180" y="424" width="40" height="36" rx="6" fill="#93C5FD"/>
  <rect x="240" y="424" width="40" height="36" rx="6" fill="#93C5FD"/>
  <rect x="300" y="424" width="40" height="36" rx="6" fill="#93C5FD"/>
  <rect x="360" y="424" width="40" height="36" rx="6" fill="#93C5FD"/>
  <rect x="420" y="424" width="32" height="36" rx="6" fill="#93C5FD"/>
  <!-- Speech bubble -->
  <rect x="80" y="130" width="352" height="200" rx="28" fill="#EFF6FF"/>
  <polygon points="140,330 100,390 200,330" fill="#EFF6FF"/>
  <!-- Quote marks -->
  <text x="138" y="270" font-size="130" fill="#2563EB" font-family="Georgia,serif" font-weight="bold">❝</text>
  <text x="292" y="310" font-size="90" fill="#2563EB" font-family="Georgia,serif" font-weight="bold">❞</text>
</svg>
